<?xml version="1.0" encoding="UTF-8" standalone="no"?>
<svg
   width="961.58386"
   height="990.35223"
   viewBox="0 0 961.58386 990.35223"
   version="1.1"
   id="svg2"
   xmlns="http://www.w3.org/2000/svg"
   xmlns:svg="http://www.w3.org/2000/svg">
  <defs
     id="defs2" />
  <path
     d="M 445.53118,1.3726415 C 336.49969,10.98325 248.05433,59.551876 184.7504,144.57717 l -8.3737,11.24707 -8.97181,0.2883 c -10.86188,0.3481 -15.93754,2.70231 -26.08526,12.0964 -7.08893,6.56378 -7.17625,6.60325 -14.74727,6.61402 -10.83915,0.0168 -23.53128,7.98252 -29.386878,18.44485 -1.05389,1.88409 -2.90448,1.70824 -24.972751,-2.3865 C 43.334236,185.52454 43.537597,185.59392 42.555482,180.68813 39.458411,165.19799 19.306517,159.31368 7.2663522,170.3837 c -18.8049262,17.2869 2.192712,45.22154 25.4416648,33.84767 l 6.487221,-3.17482 21.937896,12.32009 21.936688,12.3201 0.86967,11.29372 c 1.06346,13.81301 4.94407,22.65324 12.35,28.13801 4.653378,3.44518 4.902198,3.97033 6.227638,13.15866 2.50971,17.38858 7.61049,27.73846 15.84183,32.14662 l 4.18685,2.24295 0.0371,26.46805 c 0.12441,89.0064 34.82979,173.71948 98.35383,240.07503 l 12.26148,12.80816 -8.17272,4.85555 c -12.21005,7.25401 -12.09042,6.73125 -4.07799,17.94124 65.11026,91.08426 192.23969,138.31788 306.16142,113.74827 18.10273,-3.90454 55.56544,-17.61826 59.85995,-21.91396 0.24045,-0.24045 -1.85298,-5.05532 -4.65218,-10.69919 -2.79921,-5.64387 -4.84479,-10.47669 -4.54572,-10.73867 0.29906,-0.26198 9.42519,-3.29325 20.28108,-6.73604 78.46392,-24.88662 148.44049,-74.73044 185.19862,-131.9156 l 4.40576,-6.85327 7.0985,-0.0251 c 9.06033,-0.0323 14.46615,-2.63293 25.11151,-12.08324 7.75763,-6.88557 8.5639,-7.30306 12.96727,-6.71211 8.67155,1.16274 15.67316,-2.01567 25.84122,-11.72916 l 9.23259,-8.82109 24.34951,4.64501 c 26.53863,5.0625 25.48594,4.64381 27.50041,10.95399 5.74794,17.99746 30.79367,20.18061 39.26067,3.42125 10.19915,-20.18897 -12.00429,-39.53699 -31.52577,-27.47289 l -4.14498,2.56235 -15.21141,-8.35097 c -8.36532,-4.59357 -18.49988,-10.2829 -22.52165,-12.64428 l -7.31143,-4.29331 -0.60052,-11.10472 c -0.84454,-15.64206 -5.14025,-24.35788 -14.38361,-29.18591 -2.87696,-1.50248 -3.29206,-2.42718 -3.30761,-7.37005 -0.0431,-13.68022 -5.86996,-28.3294 -13.77712,-34.63958 l -4.14857,-3.31 -0.0311,-14.35491 C 841.5878,154.88998 656.08893,-17.185858 445.53118,1.3726415 m 0.6687,10.9121205 C 162.39981,35.569614 33.405426,372.24597 231.07846,573.75893 l 10.56043,10.76618 6.0171,-6.57933 c 16.79763,-18.36949 25.56728,-65.95959 16.82036,-91.29002 -3.22747,-9.34744 -3.23584,-9.34744 -6.11878,-0.0311 l -2.15683,6.97289 -1.335,-4.77898 c -0.7345,-2.62815 -1.66039,-9.35342 -2.05754,-14.94585 -0.62922,-8.84143 -4.12584,-22.73698 -6.39391,-25.40819 -0.4139,-0.48687 -2.34464,2.06711 -4.29212,5.67737 -4.58878,8.50648 -5.74435,8.28996 -4.81368,-0.90436 0.41629,-4.11148 1.03355,-10.16806 1.37209,-13.45772 l 0.61607,-5.98121 -2.75016,3.03008 c -1.51325,1.66636 -3.71553,4.35791 -4.89622,5.98121 -2.86022,3.93324 -2.01208,-11.18128 1.44506,-25.75868 1.24887,-5.26347 2.62455,-14.95303 3.0564,-21.53236 1.76924,-26.96091 4.57323,-40.80741 12.8273,-63.347 2.66044,-7.26717 5.00986,-13.40389 5.2216,-13.63716 0.21053,-0.23327 3.45355,2.07667 7.20616,5.13307 28.18585,22.96067 70.25649,25.08281 89.2265,4.50146 19.30735,-20.945 26.79343,-82.68306 20.03347,-165.19984 -1.76326,-21.52278 -2.8339,-20.58134 -3.9476,3.46911 -5.23117,113.05205 -21.18066,143.9462 -76.37408,147.93447 -27.949,2.01926 -58.17923,-33.57134 -71.50298,-84.18075 -8.76367,-33.28544 -5.40821,-47.73365 15.09179,-64.99662 11.76863,-9.90967 11.76385,-9.75535 0.25121,-9.70033 l -8.76247,0.0407 4.78497,-2.51211 c 2.63173,-1.38166 14.20537,-5.60559 25.7192,-9.38691 l 20.93424,-6.87481 -4.18685,-1.73216 c -2.30276,-0.9534 -5.26346,-2.14845 -6.57933,-2.65565 -3.66528,-1.41277 1.85298,-2.66164 16.2677,-3.68443 13.25556,-0.93905 13.43619,-1.31826 2.53364,-5.29098 -9.94317,-3.62341 -10.03647,-3.59351 17.30005,-5.47998 65.0349,-4.4895 74.94816,-1.34099 84.74777,26.91664 6.33889,18.28097 13.56539,29.36057 25.78381,39.52862 14.05106,11.69447 14.87168,12.01985 27.00038,10.74465 5.8233,-0.61247 17.3778,-1.12327 25.67494,-1.13523 14.03192,-0.0203 15.70187,-0.27514 23.85546,-3.63658 11.40019,-4.70123 21.02395,-7.15113 28.09255,-7.15113 h 5.68215 l -5.53382,4.22512 c -4.4883,3.42724 -9.23738,8.93354 -7.7038,8.93354 0.1926,0 5.1905,-1.3386 11.10711,-2.97625 14.66832,-4.05646 15.33583,-3.80644 7.7672,2.91165 -7.36406,6.53747 -7.46455,7.60691 -0.56462,6.00992 2.61378,-0.6053 9.8654,-1.4331 16.11577,-1.83862 l 11.3643,-0.73928 -5.64387,3.99784 c -7.50762,5.31969 -8.34977,4.51582 14.05824,13.42543 37.73904,15.00446 47.61043,13.77472 83.46181,-10.39535 17.04405,-11.4899 19.07886,-12.15262 34.75083,-11.32961 20.61245,1.0826 30.72907,10.45636 46.84125,43.40086 27.64875,56.5368 28.32462,131.24929 1.09217,120.84917 -21.51202,-8.2158 -39.76907,-59.32763 -38.25223,-107.09238 0.77995,-24.5756 0.69741,-26.09124 -1.86973,-34.0929 l -2.68556,-8.3737 -1.60416,12.56055 c -0.88163,6.90829 -3.45714,19.2894 -5.72163,27.51356 -5.85202,21.25603 -7.0028,29.48019 -6.31137,45.12943 0.68903,15.62053 1.1759,15.2808 -9.74698,6.79825 -4.51582,-3.50738 -8.59141,-7.9921 -10.77097,-11.85357 -4.06004,-7.1942 -11.58799,-14.20657 -20.39592,-19.00111 -8.0244,-4.36628 -8.01961,-4.45121 -0.41749,8.83306 29.33664,51.26495 39.27382,79.76183 39.21042,112.44675 l -0.0395,20.93424 -5.03019,16.74739 c -6.21209,20.68063 -6.21927,19.78704 0.34093,40.91507 19.11834,61.57656 16.19233,91.17877 -12.81415,129.67384 -22.44748,29.78882 -43.59944,32.58922 -70.64767,9.34983 l -5.69052,-4.89024 7.77079,-8.57227 c 12.82132,-14.14437 11.55211,-15.154 -7.07099,-5.62473 -73.25069,37.47707 -122.81698,17.36704 -192.50645,-78.10743 -21.53236,-29.49933 -10.90495,0.35648 16.32152,45.85196 41.99767,70.17873 117.91718,98.12773 160.9472,59.25226 3.26335,-2.94874 5.40701,-4.07919 6.48244,-3.41766 4.04808,2.48579 15.24969,11.53297 15.24969,12.3165 0,1.58502 -12.14186,16.94956 -19.69134,24.91773 l -7.41192,7.82462 7.86888,10.00417 c 9.22901,11.73274 6.69776,11.43488 32.39304,3.81482 C 841.10332,601.43638 917.13527,308.57957 740.85584,123.4647 666.0297,44.887144 555.7936,3.2926105 446.19988,12.284762 M 156.5765,164.60227 c -35.92434,18.71999 -62.921128,112.59509 -39.32167,136.73286 4.73114,4.84 5.63071,4.83641 6.37956,-0.0203 3.51695,-22.81233 4.95962,-30.5891 7.89281,-42.57306 6.76235,-27.62003 21.30746,-63.83985 35.06185,-87.30773 6.31855,-10.78053 2.52886,-13.36681 -10.01255,-6.83173 M 11.175671,175.29069 c -9.4180138,9.41801 -2.8793548,25.83883 10.28767,25.83883 11.779396,0 19.5454,-13.65391 13.22326,-23.24657 -5.293371,-8.02918 -16.804797,-9.29839 -23.51093,-2.59226 m 106.231079,7.50044 c -19.753538,9.73501 -33.144278,49.00884 -23.658078,69.38204 3.33034,7.15472 7.850938,10.6633 7.882038,6.11878 0.10527,-15.32745 15.04394,-58.45796 25.25028,-72.8978 1.23452,-1.74651 2.24415,-3.49662 2.24415,-3.88779 0,-1.45941 -7.91194,-0.59094 -11.71839,1.28477 m -74.945771,11.05925 c -0.771576,1.24888 0.67468,2.16042 24.561252,15.48775 19.165001,10.69321 19.026231,10.63699 19.066911,7.6416 0.0156,-1.15079 1.30151,-5.18811 2.85662,-8.97182 1.55631,-3.78371 2.75375,-6.88078 2.66284,-6.88318 -0.0909,-0.002 -10.1238,-1.88408 -22.295561,-4.18206 -23.966726,-4.52419 -25.83406,-4.73951 -26.852062,-3.09229 M 451.40472,336.38742 c -24.0014,5.78263 -36.34661,33.47922 -24.86867,55.79632 l 3.44398,6.69776 19.13748,0.40672 c 10.52454,0.2225 22.06349,0.94623 25.63906,1.60775 9.72305,1.79795 11.59039,1.5276 15.95547,-2.30397 9.09862,-7.9897 14.2293,-23.81957 11.08199,-34.19577 -2.52646,-8.33063 -2.32549,-9.72186 1.75489,-12.13229 13.63716,-8.05549 -29.76011,-21.26918 -52.1442,-15.87652 m 173.37735,30.81519 c 2.68916,2.97147 2.49058,4.59955 -0.8266,6.77312 -13.24001,8.67515 -4.47155,46.55894 12.01745,51.92768 4.47394,1.45582 10.12858,3.95477 12.56652,5.55176 l 4.43208,2.90447 4.3615,-13.43978 c 8.18708,-25.22396 2.82432,-43.79801 -15.24252,-52.80093 -7.95381,-3.96434 -20.67585,-4.63783 -17.30843,-0.91632 m 214.38094,38.75585 c -5.84723,39.80257 -20.87801,83.11371 -41.37682,119.22945 l -5.02182,8.84861 5.02661,-0.67349 c 36.09421,-4.84119 71.3355,-103.98573 48.79113,-137.25921 -4.49548,-6.63675 -5.11753,-5.81015 -7.4191,9.85464 m 19.28223,40.91029 c -3.58633,21.201 -10.43482,40.54543 -20.87443,58.96875 -5.18331,9.14886 -4.86033,10.70996 1.82427,8.79238 24.84117,-7.12362 42.32305,-56.20663 26.8353,-75.34292 -5.08522,-6.28266 -5.50869,-5.86996 -7.78514,7.58179 m 17.70797,30.89175 c -6.83652,18.66856 -10.82001,15.51048 29.85342,23.67124 11.41933,2.29081 15.22457,1.975 13.32015,-1.10533 -0.80148,-1.29911 -40.36719,-24.06121 -41.82182,-24.06121 -0.44141,0 -1.0503,0.67348 -1.35175,1.4953 m 55.87767,18.80014 c -13.1156,8.23135 -7.30187,28.00403 8.23732,28.01121 19.46645,0.01 20.84691,-28.3306 1.46061,-30.00175 -4.35312,-0.37562 -6.69417,0.10527 -9.69793,1.99054 m -365.90056,10.07475 c -20.25357,9.28763 14.51281,61.23803 40.89354,61.10764 19.54779,-0.0969 51.30204,-37.29404 40.80143,-47.79466 -9.00292,-9.00291 -69.56986,-18.87311 -81.69497,-13.31298 m -321.39077,98.67203 c 49.31627,78.82398 205.02872,126.02291 303.54523,92.00897 23.72747,-8.19187 27.29586,-12.30694 6.51235,-7.50642 -40.15546,9.27207 -53.24953,10.77335 -85.33633,9.78645 -74.35362,-2.28721 -146.28844,-29.47899 -200.41959,-75.75801 -26.41303,-22.58266 -27.22289,-23.19992 -24.30166,-18.53099 m -45.63425,5.096 c -4.60553,2.01447 -19.94733,8.13444 -34.0929,13.59768 -55.40993,21.40436 -69.153558,29.86418 -83.595788,51.45755 -8.065061,12.05692 -10.294861,19.04657 -10.303231,32.2794 l -0.006,10.76618 11.609531,23.92484 c 12.97683,26.7396 15.58823,34.94343 18.280968,57.41962 4.1067,34.27951 17.70079,53.12989 48.75644,67.60801 65.85432,30.70036 120.22592,-24.81006 112.25296,-114.60358 -5.22399,-58.82401 -23.41285,-84.36497 -76.65878,-107.64504 l -2.99061,-1.30749 3.75381,-0.0802 c 66.41656,-1.4331 116.80587,90.03516 94.42178,171.39637 l -2.84346,10.33673 6.16423,5.59004 c 25.92018,23.50376 71.07831,42.60296 111.08902,46.9836 20.62441,2.25731 19.04896,2.81476 25.49551,-9.01249 20.18898,-37.03804 53.50552,-65.60789 89.96698,-77.15163 l 8.65122,-2.73939 2.4523,-7.36886 c 6.37238,-19.14944 10.13934,-44.55284 6.39391,-43.11495 -5.43931,2.08624 -32.93135,6.81379 -46.57449,8.00884 -106.65336,9.33547 -213.84024,-42.53119 -263.96757,-127.73354 -8.23971,-14.0056 -7.12481,-13.47925 -18.25585,-8.61174 m 374.4238,109.38562 c -7.8952,4.21675 -19.73799,9.76134 -26.31733,12.32129 -6.57933,2.55996 -11.90859,5.25629 -11.84279,5.99198 0.0658,0.73449 0.20097,11.99352 0.29906,25.0194 l 0.17943,23.68201 11.06524,1.40319 c 13.79148,1.74891 24.07079,5.10197 24.64379,8.03875 0.33734,1.72976 -0.13039,2.00729 -2.39249,1.41396 -3.755,-0.98332 -30.85228,1.32424 -40.04181,3.41168 -43.95113,9.97905 -101.68895,75.41947 -105.26213,119.30481 -2.81715,34.58456 28.39161,67.19293 66.89027,69.88933 36.81675,2.5779 121.70567,-52.82972 135.03181,-88.138 l 3.83755,-10.16806 -0.0383,-23.32672 c -0.0718,-42.92595 -11.42412,-90.65482 -35.06904,-147.43684 -4.59357,-11.03055 -3.14492,-10.93246 -20.98328,-1.40678"
     stroke="none"
     fill="#ffffff"
     fill-rule="evenodd"
     id="path2"
     style="fill:#ffffff;stroke-width:1.19624" />
</svg>
