<svg xmlns="http://www.w3.org/2000/svg" width="1009" height="1009" viewBox="0 0 1009 1009" version="1.1"><path d="" stroke="none" fill="#000000" fill-rule="evenodd"/><path d="M 474.500 91.013 C 383.355 99.047, 309.419 139.648, 256.500 210.725 L 249.500 220.127 242 220.368 C 232.920 220.659, 228.677 222.627, 220.194 230.480 C 214.268 235.967, 214.195 236, 207.866 236.009 C 198.805 236.023, 188.195 242.682, 183.300 251.428 C 182.419 253.003, 180.872 252.856, 162.424 249.433 C 138.283 244.955, 138.453 245.013, 137.632 240.912 C 135.043 227.963, 118.197 223.044, 108.132 232.298 C 92.412 246.749, 109.965 270.101, 129.400 260.593 L 134.823 257.939 153.162 268.238 L 171.500 278.537 172.227 287.978 C 173.116 299.525, 176.360 306.915, 182.551 311.500 C 186.441 314.380, 186.649 314.819, 187.757 322.500 C 189.855 337.036, 194.119 345.688, 201 349.373 L 204.500 351.248 204.531 373.374 C 204.635 447.779, 233.647 518.595, 286.750 574.065 L 297 584.772 290.168 588.831 C 279.961 594.895, 280.061 594.458, 286.759 603.829 C 341.188 679.971, 447.462 719.456, 542.695 698.917 C 557.828 695.653, 589.145 684.189, 592.735 680.598 C 592.936 680.397, 591.186 676.372, 588.846 671.654 C 586.506 666.936, 584.796 662.896, 585.046 662.677 C 585.296 662.458, 592.925 659.924, 602 657.046 C 667.592 636.242, 726.089 594.575, 756.817 546.771 L 760.500 541.042 766.434 541.021 C 774.008 540.994, 778.527 538.820, 787.426 530.920 C 793.911 525.164, 794.585 524.815, 798.266 525.309 C 805.515 526.281, 811.368 523.624, 819.868 515.504 L 827.586 508.130 847.941 512.013 C 870.126 516.245, 869.246 515.895, 870.930 521.170 C 875.735 536.215, 896.672 538.040, 903.750 524.030 C 912.276 507.153, 893.715 490.979, 877.396 501.064 L 873.931 503.206 861.215 496.225 C 854.222 492.385, 845.750 487.629, 842.388 485.655 L 836.276 482.066 835.774 472.783 C 835.068 459.707, 831.477 452.421, 823.750 448.385 C 821.345 447.129, 820.998 446.356, 820.985 442.224 C 820.949 430.788, 816.078 418.542, 809.468 413.267 L 806 410.500 805.974 398.500 C 805.584 219.346, 650.516 75.499, 474.500 91.013 M 475.059 100.135 C 237.816 119.600, 129.983 401.045, 295.228 569.500 L 304.056 578.500 309.086 573 C 323.128 557.644, 330.459 517.861, 323.147 496.686 C 320.449 488.872, 320.442 488.872, 318.032 496.660 L 316.229 502.489 315.113 498.494 C 314.499 496.297, 313.725 490.675, 313.393 486 C 312.867 478.609, 309.944 466.993, 308.048 464.760 C 307.702 464.353, 306.088 466.488, 304.460 469.506 C 300.624 476.617, 299.658 476.436, 300.436 468.750 C 300.784 465.313, 301.300 460.250, 301.583 457.500 L 302.098 452.500 299.799 455.033 C 298.534 456.426, 296.693 458.676, 295.706 460.033 C 293.315 463.321, 294.024 450.686, 296.914 438.500 C 297.958 434.100, 299.108 426, 299.469 420.500 C 300.948 397.962, 303.292 386.387, 310.192 367.545 C 312.416 361.470, 314.380 356.340, 314.557 356.145 C 314.733 355.950, 317.444 357.881, 320.581 360.436 C 344.143 379.630, 379.312 381.404, 395.170 364.199 C 411.310 346.690, 417.568 295.080, 411.917 226.100 C 410.443 208.108, 409.548 208.895, 408.617 229 C 404.244 323.506, 390.911 349.332, 344.772 352.666 C 321.408 354.354, 296.137 324.602, 284.999 282.295 C 277.673 254.470, 280.478 242.392, 297.615 227.961 C 307.453 219.677, 307.449 219.806, 297.825 219.852 L 290.500 219.886 294.500 217.786 C 296.700 216.631, 306.375 213.100, 316 209.939 L 333.500 204.192 330 202.744 C 328.075 201.947, 325.600 200.948, 324.500 200.524 C 321.436 199.343, 326.049 198.299, 338.099 197.444 C 349.180 196.659, 349.331 196.342, 340.217 193.021 C 331.905 189.992, 331.827 190.017, 354.679 188.440 C 409.045 184.687, 417.332 187.319, 425.524 210.941 C 430.823 226.223, 436.864 235.485, 447.078 243.985 C 458.824 253.761, 459.510 254.033, 469.649 252.967 C 474.517 252.455, 484.176 252.028, 491.112 252.018 C 502.842 252.001, 504.238 251.788, 511.054 248.978 C 520.584 245.048, 528.629 243, 534.538 243 L 539.288 243 534.662 246.532 C 530.910 249.397, 526.940 254, 528.222 254 C 528.383 254, 532.561 252.881, 537.507 251.512 C 549.769 248.121, 550.327 248.330, 544 253.946 C 537.844 259.411, 537.760 260.305, 543.528 258.970 C 545.713 258.464, 551.775 257.772, 557 257.433 L 566.500 256.815 561.782 260.157 C 555.506 264.604, 554.802 263.932, 573.534 271.380 C 605.082 283.923, 613.334 282.895, 643.304 262.690 C 657.552 253.085, 659.253 252.531, 672.354 253.219 C 689.585 254.124, 698.042 261.960, 711.511 289.500 C 734.624 336.762, 735.189 399.218, 712.424 390.524 C 694.441 383.656, 679.179 340.929, 680.447 301 C 681.099 280.456, 681.030 279.189, 678.884 272.500 L 676.639 265.500 675.298 276 C 674.561 281.775, 672.408 292.125, 670.515 299 C 665.623 316.769, 664.661 323.644, 665.239 336.726 C 665.815 349.784, 666.222 349.500, 657.091 342.409 C 653.316 339.477, 649.909 335.728, 648.087 332.500 C 644.693 326.486, 638.400 320.624, 631.037 316.616 C 624.329 312.966, 624.333 312.895, 630.688 324 C 655.212 366.855, 663.519 390.677, 663.466 418 L 663.433 435.500 659.228 449.500 C 654.035 466.788, 654.029 466.041, 659.513 483.703 C 675.495 535.178, 673.049 559.924, 648.801 592.104 C 630.036 617.006, 612.354 619.347, 589.743 599.920 L 584.986 595.832 591.482 588.666 C 602.200 576.842, 601.139 575.998, 585.571 583.964 C 524.337 615.293, 482.902 598.482, 424.645 518.670 C 406.645 494.010, 415.529 518.968, 438.289 557 C 473.397 615.666, 536.862 639.030, 572.833 606.532 C 575.561 604.067, 577.353 603.122, 578.252 603.675 C 581.636 605.753, 591 613.316, 591 613.971 C 591 615.296, 580.850 628.140, 574.539 634.801 L 568.343 641.342 574.921 649.705 C 582.636 659.513, 580.520 659.264, 602 652.894 C 805.179 592.637, 868.738 347.823, 721.377 193.076 C 658.826 127.389, 566.674 92.618, 475.059 100.135 M 232.948 227.465 C 202.917 243.114, 180.349 321.589, 200.077 341.767 C 204.032 345.813, 204.784 345.810, 205.410 341.750 C 208.350 322.680, 209.556 316.179, 212.008 306.161 C 217.661 283.072, 229.820 252.794, 241.318 233.176 C 246.600 224.164, 243.432 222.002, 232.948 227.465 M 111.400 236.400 C 103.527 244.273, 108.993 258, 120 258 C 129.847 258, 136.339 246.586, 131.054 238.567 C 126.629 231.855, 117.006 230.794, 111.400 236.400 M 200.204 242.670 C 183.691 250.808, 172.497 283.639, 180.427 300.670 C 183.211 306.651, 186.990 309.584, 187.016 305.785 C 187.104 292.972, 199.592 256.917, 208.124 244.846 C 209.156 243.386, 210 241.923, 210 241.596 C 210 240.376, 203.386 241.102, 200.204 242.670 M 137.553 251.915 C 136.908 252.959, 138.117 253.721, 158.085 264.862 C 174.106 273.801, 173.990 273.754, 174.024 271.250 C 174.037 270.288, 175.112 266.913, 176.412 263.750 C 177.713 260.587, 178.714 257.998, 178.638 257.996 C 178.562 257.994, 170.175 256.421, 160 254.500 C 139.965 250.718, 138.404 250.538, 137.553 251.915 M 479.410 371.069 C 459.346 375.903, 449.026 399.056, 458.621 417.712 L 461.500 423.311 477.498 423.651 C 486.296 423.837, 495.942 424.442, 498.931 424.995 C 507.059 426.498, 508.620 426.272, 512.269 423.069 C 519.875 416.390, 524.164 403.157, 521.533 394.483 C 519.421 387.519, 519.589 386.356, 523 384.341 C 534.400 377.607, 498.122 366.561, 479.410 371.069 M 624.345 396.829 C 626.593 399.313, 626.427 400.674, 623.654 402.491 C 612.586 409.743, 619.916 441.412, 633.700 445.900 C 637.440 447.117, 642.167 449.206, 644.205 450.541 L 647.910 452.969 651.556 441.734 C 658.400 420.648, 653.917 405.121, 638.814 397.595 C 632.165 394.281, 621.530 393.718, 624.345 396.829 M 803.557 429.227 C 798.669 462.500, 786.104 498.706, 768.968 528.897 L 764.770 536.294 768.972 535.731 C 799.145 531.684, 828.605 448.804, 809.759 420.989 C 806.001 415.441, 805.481 416.132, 803.557 429.227 M 819.676 463.426 C 816.678 481.149, 810.953 497.320, 802.226 512.721 C 797.893 520.369, 798.163 521.674, 803.751 520.071 C 824.517 514.116, 839.131 473.085, 826.184 457.088 C 821.933 451.836, 821.579 452.181, 819.676 463.426 M 834.479 489.250 C 828.764 504.856, 825.434 502.216, 859.435 509.038 C 868.981 510.953, 872.162 510.689, 870.570 508.114 C 869.900 507.028, 836.825 488, 835.609 488 C 835.240 488, 834.731 488.563, 834.479 489.250 M 881.190 504.966 C 870.226 511.847, 875.086 528.376, 888.076 528.382 C 904.349 528.390, 905.503 504.699, 889.297 503.302 C 885.658 502.988, 883.701 503.390, 881.190 504.966 M 575.315 513.388 C 558.384 521.152, 587.447 564.580, 609.500 564.471 C 625.841 564.390, 652.386 533.295, 643.608 524.517 C 636.082 516.991, 585.451 508.740, 575.315 513.388 M 306.648 595.873 C 347.874 661.766, 478.042 701.222, 560.397 672.788 C 580.232 665.940, 583.215 662.500, 565.841 666.513 C 532.273 674.264, 521.327 675.519, 494.504 674.694 C 432.348 672.782, 372.214 650.051, 326.963 611.364 C 304.883 592.486, 304.206 591.970, 306.648 595.873 M 268.500 600.133 C 264.650 601.817, 251.825 606.933, 240 611.500 C 193.680 629.393, 182.191 636.465, 170.118 654.516 C 163.376 664.595, 161.512 670.438, 161.505 681.500 L 161.500 690.500 171.205 710.500 C 182.053 732.853, 184.236 739.711, 186.487 758.500 C 189.920 787.156, 201.284 802.914, 227.245 815.017 C 282.296 840.681, 327.748 794.277, 321.083 719.214 C 316.716 670.040, 301.511 648.689, 257 629.228 L 254.500 628.135 257.638 628.068 C 313.159 626.870, 355.282 703.333, 336.570 771.347 L 334.193 779.988 339.346 784.661 C 361.014 804.309, 398.764 820.275, 432.211 823.937 C 449.452 825.824, 448.135 826.290, 453.524 816.403 C 470.401 785.441, 498.252 761.558, 528.732 751.908 L 535.964 749.618 538.014 743.458 C 543.341 727.450, 546.490 706.214, 543.359 707.416 C 538.812 709.160, 515.830 713.112, 504.425 714.111 C 415.268 721.915, 325.665 678.557, 283.761 607.332 C 276.873 595.624, 277.805 596.064, 268.500 600.133 M 581.500 691.574 C 574.900 695.099, 565 699.734, 559.500 701.874 C 554 704.014, 549.545 706.268, 549.600 706.883 C 549.655 707.497, 549.768 716.909, 549.850 727.798 L 550 747.595 559.250 748.768 C 570.779 750.230, 579.372 753.033, 579.851 755.488 C 580.133 756.934, 579.742 757.166, 577.851 756.670 C 574.712 755.848, 552.060 757.777, 544.378 759.522 C 507.637 767.864, 459.371 822.569, 456.384 859.255 C 454.029 888.166, 480.118 915.425, 512.301 917.679 C 543.078 919.834, 614.041 873.516, 625.181 844 L 628.389 835.500 628.357 816 C 628.297 780.116, 618.807 740.217, 599.041 692.750 C 595.201 683.529, 596.412 683.611, 581.500 691.574" stroke="none" fill="#ffffff" fill-rule="evenodd"/></svg>